<svg width="536" height="103" viewBox="0 0 536 103" fill="none" xmlns="http://www.w3.org/2000/svg">
<path d="M7.316 81V13.8H17.492V42.6H50.036V13.8H60.212V81H50.036V50.952H17.492V81H7.316ZM87.2225 82.152C81.4625 82.152 76.9185 80.36 73.5905 76.776C70.3265 73.192 68.6945 67.848 68.6945 60.744V33.384H78.8705V59.688C78.8705 68.904 82.6465 73.512 90.1985 73.512C93.9745 73.512 97.0785 72.168 99.5105 69.48C101.943 66.792 103.159 62.952 103.159 57.96V33.384H113.335V81H104.311L103.543 72.648C102.071 75.592 99.8945 77.928 97.0145 79.656C94.1985 81.32 90.9345 82.152 87.2225 82.152ZM122.439 81V33.384H131.464L132.327 40.104C133.864 37.672 135.88 35.752 138.376 34.344C140.936 32.936 143.88 32.232 147.208 32.232C154.76 32.232 160.008 35.208 162.952 41.16C164.68 38.408 166.984 36.232 169.864 34.632C172.808 33.032 175.976 32.232 179.368 32.232C185.32 32.232 189.992 34.024 193.384 37.608C196.776 41.192 198.472 46.536 198.472 53.64V81H188.296V54.696C188.296 45.48 184.776 40.872 177.736 40.872C174.152 40.872 171.208 42.216 168.903 44.904C166.664 47.592 165.544 51.432 165.544 56.424V81H155.368V54.696C155.368 45.48 151.816 40.872 144.712 40.872C141.192 40.872 138.28 42.216 135.976 44.904C133.736 47.592 132.616 51.432 132.616 56.424V81H122.439ZM222.665 82.152C218.633 82.152 215.305 81.48 212.681 80.136C210.057 78.792 208.105 77.032 206.825 74.856C205.545 72.616 204.905 70.184 204.905 67.56C204.905 62.952 206.697 59.304 210.281 56.616C213.865 53.928 218.985 52.584 225.641 52.584H238.121V51.72C238.121 48.008 237.097 45.224 235.049 43.368C233.065 41.512 230.473 40.584 227.273 40.584C224.457 40.584 221.993 41.288 219.881 42.696C217.833 44.04 216.585 46.056 216.137 48.744H205.961C206.281 45.288 207.433 42.344 209.417 39.912C211.465 37.416 214.025 35.528 217.097 34.248C220.233 32.904 223.657 32.232 227.369 32.232C234.025 32.232 239.177 33.992 242.825 37.512C246.473 40.968 248.297 45.704 248.297 51.72V81H239.465L238.601 72.84C237.257 75.464 235.305 77.672 232.745 79.464C230.185 81.256 226.825 82.152 222.665 82.152ZM224.681 73.896C227.433 73.896 229.737 73.256 231.593 71.976C233.513 70.632 234.985 68.872 236.009 66.696C237.097 64.52 237.769 62.12 238.025 59.496H226.697C222.665 59.496 219.785 60.2 218.057 61.608C216.393 63.016 215.561 64.776 215.561 66.888C215.561 69.064 216.361 70.792 217.961 72.072C219.625 73.288 221.865 73.896 224.681 73.896ZM256.322 81V33.384H265.346L266.114 41.736C267.586 38.792 269.73 36.488 272.546 34.824C275.426 33.096 278.722 32.232 282.434 32.232C288.194 32.232 292.706 34.024 295.97 37.608C299.298 41.192 300.962 46.536 300.962 53.64V81H290.882V54.696C290.882 45.48 287.106 40.872 279.554 40.872C275.778 40.872 272.642 42.216 270.146 44.904C267.714 47.592 266.498 51.432 266.498 56.424V81H256.322ZM309.491 81V13.8H319.667V72.936H350.195V81H309.491ZM373.051 82.152C369.019 82.152 365.691 81.48 363.067 80.136C360.443 78.792 358.491 77.032 357.211 74.856C355.931 72.616 355.291 70.184 355.291 67.56C355.291 62.952 357.083 59.304 360.667 56.616C364.251 53.928 369.371 52.584 376.027 52.584H388.507V51.72C388.507 48.008 387.483 45.224 385.435 43.368C383.451 41.512 380.859 40.584 377.659 40.584C374.843 40.584 372.379 41.288 370.267 42.696C368.219 44.04 366.971 46.056 366.523 48.744H356.347C356.667 45.288 357.819 42.344 359.803 39.912C361.851 37.416 364.411 35.528 367.483 34.248C370.619 32.904 374.043 32.232 377.755 32.232C384.411 32.232 389.563 33.992 393.211 37.512C396.859 40.968 398.683 45.704 398.683 51.72V81H389.851L388.987 72.84C387.643 75.464 385.691 77.672 383.131 79.464C380.571 81.256 377.211 82.152 373.051 82.152ZM375.067 73.896C377.819 73.896 380.123 73.256 381.979 71.976C383.899 70.632 385.371 68.872 386.395 66.696C387.483 64.52 388.155 62.12 388.411 59.496H377.083C373.051 59.496 370.171 60.2 368.443 61.608C366.779 63.016 365.947 64.776 365.947 66.888C365.947 69.064 366.747 70.792 368.347 72.072C370.011 73.288 372.251 73.896 375.067 73.896ZM410.776 102.12L422.2 77.064H419.416L400.6 33.384H411.64L426.232 68.616L441.496 33.384H452.248L421.528 102.12H410.776ZM474.734 82.152C470.062 82.152 465.902 81.128 462.254 79.08C458.67 76.968 455.854 74.056 453.806 70.344C451.758 66.632 450.734 62.312 450.734 57.384C450.734 52.392 451.726 48.008 453.71 44.232C455.758 40.456 458.574 37.512 462.158 35.4C465.806 33.288 470.03 32.232 474.83 32.232C479.502 32.232 483.566 33.288 487.022 35.4C490.478 37.448 493.166 40.2 495.086 43.656C497.006 47.112 497.966 50.92 497.966 55.08C497.966 55.72 497.934 56.424 497.87 57.192C497.87 57.896 497.838 58.696 497.774 59.592H460.718C461.038 64.2 462.542 67.72 465.23 70.152C467.982 72.52 471.15 73.704 474.734 73.704C477.614 73.704 480.014 73.064 481.934 71.784C483.918 70.44 485.39 68.648 486.35 66.408H496.526C495.246 70.888 492.686 74.632 488.846 77.64C485.07 80.648 480.366 82.152 474.734 82.152ZM474.734 40.584C471.342 40.584 468.334 41.608 465.71 43.656C463.086 45.64 461.486 48.648 460.91 52.68H487.79C487.598 48.968 486.286 46.024 483.854 43.848C481.422 41.672 478.382 40.584 474.734 40.584ZM504.685 81V33.384H513.805L514.669 42.408C516.333 39.272 518.637 36.808 521.581 35.016C524.589 33.16 528.205 32.232 532.429 32.232V42.888H529.645C526.829 42.888 524.301 43.368 522.061 44.328C519.885 45.224 518.125 46.792 516.781 49.032C515.501 51.208 514.861 54.248 514.861 58.152V81H504.685Z" fill="white" style="fill:white;fill-opacity:1;"/>
</svg>
